<svg width="14" height="18" viewBox="0 0 14 18" fill="none" xmlns="http://www.w3.org/2000/svg">
<g clip-path="url(#clip0_238_96)">
<path d="M7.06766 9.02953C9.24082 9.02953 11.0025 7.27928 11.0025 5.12024C11.0025 2.96119 9.24082 1.21094 7.06766 1.21094C4.8945 1.21094 3.13281 2.96119 3.13281 5.12024C3.13281 7.27928 4.8945 9.02953 7.06766 9.02953Z" stroke="#666666" stroke-width="1.5" stroke-linecap="round" stroke-linejoin="round"/>
<path fill-rule="evenodd" clip-rule="evenodd" d="M0.828138 14.4676C0.827078 14.1929 0.88894 13.9214 1.00905 13.6738C1.38595 12.9249 2.44881 12.528 3.33076 12.3483C3.96682 12.2134 4.61167 12.1233 5.2605 12.0786C6.46176 11.9738 7.66995 11.9738 8.8712 12.0786C9.51998 12.1239 10.1648 12.2139 10.801 12.3483C11.6829 12.528 12.7457 12.8875 13.1227 13.6738C13.3642 14.1785 13.3642 14.7644 13.1227 15.269C12.7457 16.0553 11.6829 16.4148 10.801 16.587C10.1656 16.7275 9.52056 16.8201 8.8712 16.8642C7.89349 16.9465 6.9112 16.9615 5.93138 16.9091C5.70524 16.9091 5.48664 16.9091 5.2605 16.8642C4.61358 16.8207 3.97097 16.728 3.3383 16.587C2.44881 16.4148 1.39349 16.0553 1.00905 15.269C0.889557 15.0186 0.827753 14.7448 0.828138 14.4676Z" stroke="#666666" stroke-width="1.5" stroke-linecap="round" stroke-linejoin="round"/>
</g>
<defs>
<clipPath id="clip0_238_96">
<rect width="14" height="18" fill="white"/>
</clipPath>
</defs>
</svg>
