<svg width="127" height="28" viewBox="0 0 127 28" fill="none" xmlns="http://www.w3.org/2000/svg">
<path d="M31.4463 5.72262H34.2822V19.0917H41.0567V21.6575H31.4463V5.72262Z" fill="#262C39"/>
<path d="M41.7894 10.8542H44.4903V21.6575H41.7894V10.8542ZM41.4068 7.18557C41.4068 6.75043 41.5644 6.37532 41.8795 6.06022C42.2096 5.73012 42.6222 5.56507 43.1174 5.56507C43.6125 5.56507 44.0251 5.72262 44.3552 6.03772C44.7003 6.33781 44.8729 6.72043 44.8729 7.18557C44.8729 7.65071 44.7003 8.04083 44.3552 8.35593C44.0251 8.65602 43.6125 8.80607 43.1174 8.80607C42.6222 8.80607 42.2096 8.64852 41.8795 8.33342C41.5644 8.00332 41.4068 7.6207 41.4068 7.18557Z" fill="#262C39"/>
<path d="M46.4656 10.8542H49.0314V12.5872H49.0764C49.3315 12.0471 49.7216 11.5819 50.2468 11.1918C50.7719 10.7867 51.4847 10.5841 52.3849 10.5841C53.1052 10.5841 53.7129 10.7042 54.208 10.9442C54.7182 11.1843 55.1308 11.4994 55.4459 11.8895C55.761 12.2796 55.9861 12.7298 56.1211 13.2399C56.2561 13.7501 56.3237 14.2828 56.3237 14.8379V21.6575H53.6228V16.1883C53.6228 15.8882 53.6078 15.5581 53.5778 15.198C53.5478 14.8229 53.4653 14.4778 53.3302 14.1627C53.2102 13.8326 53.0151 13.5625 52.7451 13.3525C52.475 13.1274 52.1074 13.0149 51.6422 13.0149C51.1921 13.0149 50.8095 13.0899 50.4944 13.2399C50.1943 13.39 49.9392 13.5925 49.7291 13.8476C49.5341 14.1027 49.3915 14.3953 49.3015 14.7254C49.2115 15.0555 49.1665 15.4006 49.1665 15.7607V21.6575H46.4656V10.8542Z" fill="#262C39"/>
<path d="M69.3826 10.8542V20.6897C69.3826 21.665 69.2626 22.5428 69.0225 23.323C68.7824 24.1183 68.4073 24.786 67.8971 25.3262C67.402 25.8813 66.7718 26.309 66.0066 26.6091C65.2413 26.9091 64.3335 27.0592 63.2832 27.0592C62.2779 27.0592 61.3251 26.9317 60.4248 26.6766C59.5246 26.4215 58.6918 25.9564 57.9266 25.2811L59.5471 23.0755C60.0872 23.5706 60.6499 23.9532 61.2351 24.2233C61.8203 24.4934 62.4955 24.6284 63.2607 24.6284C63.9059 24.6284 64.4461 24.5384 64.8812 24.3584C65.3314 24.1783 65.684 23.9307 65.939 23.6156C66.2091 23.3005 66.3967 22.9179 66.5017 22.4678C66.6217 22.0326 66.6818 21.545 66.6818 21.0048V20.2171H66.6368C66.2466 20.7422 65.729 21.1399 65.0838 21.41C64.4386 21.665 63.7784 21.7926 63.1032 21.7926C62.2929 21.7926 61.5577 21.65 60.8975 21.3649C60.2373 21.0648 59.6671 20.6672 59.187 20.1721C58.7218 19.6769 58.3617 19.0917 58.1066 18.4165C57.8515 17.7413 57.724 17.0211 57.724 16.2559C57.724 15.4606 57.844 14.7179 58.0841 14.0277C58.3242 13.3375 58.6768 12.7373 59.1419 12.2271C59.6071 11.717 60.1623 11.3193 60.8075 11.0343C61.4677 10.7342 62.2179 10.5841 63.0582 10.5841C63.8234 10.5841 64.5361 10.7342 65.1963 11.0343C65.8565 11.3343 66.3817 11.8145 66.7718 12.4747H66.8168V10.8542H69.3826ZM63.6208 13.0149C63.1407 13.0149 62.7055 13.0974 62.3154 13.2624C61.9253 13.4125 61.5877 13.6301 61.3026 13.9151C61.0325 14.1852 60.815 14.5228 60.6499 14.928C60.4999 15.3181 60.4248 15.7532 60.4248 16.2334C60.4248 16.6685 60.4999 17.0736 60.6499 17.4487C60.815 17.8238 61.04 18.1539 61.3251 18.439C61.6102 18.7241 61.9478 18.9492 62.3379 19.1142C62.7281 19.2793 63.1482 19.3618 63.5983 19.3618C64.0935 19.3618 64.5361 19.2793 64.9262 19.1142C65.3314 18.9492 65.669 18.7316 65.939 18.4615C66.2241 18.1765 66.4417 17.8389 66.5917 17.4487C66.7418 17.0586 66.8168 16.6385 66.8168 16.1883C66.8168 15.2431 66.5317 14.4778 65.9615 13.8926C65.3914 13.3075 64.6111 13.0149 63.6208 13.0149Z" fill="#262C39"/>
<path d="M69.8526 10.8542H72.801L75.6819 18.4165H75.7269L78.6303 10.8542H81.3987L77.1449 21.6575H74.264L69.8526 10.8542Z" fill="#262C39"/>
<path d="M88.6134 20.1721H88.5459C88.1557 20.7873 87.6606 21.2374 87.0604 21.5225C86.4602 21.7926 85.8 21.9276 85.0798 21.9276C84.5846 21.9276 84.097 21.8601 83.6168 21.725C83.1517 21.59 82.7316 21.3874 82.3564 21.1174C81.9963 20.8473 81.7037 20.5097 81.4787 20.1045C81.2536 19.6994 81.1411 19.2268 81.1411 18.6866C81.1411 18.1014 81.2461 17.6063 81.4562 17.2012C81.6662 16.781 81.9438 16.4359 82.2889 16.1658C82.649 15.8807 83.0617 15.6557 83.5268 15.4906C83.992 15.3256 84.4721 15.2055 84.9672 15.1305C85.4774 15.0405 85.9876 14.988 86.4977 14.973C87.0079 14.943 87.488 14.928 87.9382 14.928H88.6134V14.6354C88.6134 13.9602 88.3808 13.4575 87.9157 13.1274C87.4505 12.7823 86.8578 12.6097 86.1376 12.6097C85.5674 12.6097 85.0348 12.7148 84.5396 12.9248C84.0445 13.1199 83.6168 13.39 83.2567 13.7351L81.8388 12.3172C82.439 11.702 83.1367 11.2593 83.9319 10.9892C84.7422 10.7192 85.5749 10.5841 86.4302 10.5841C87.1954 10.5841 87.8406 10.6741 88.3658 10.8542C88.891 11.0192 89.3261 11.2368 89.6712 11.5069C90.0163 11.777 90.2789 12.0921 90.4589 12.4522C90.654 12.7973 90.789 13.1499 90.8641 13.51C90.9541 13.8701 91.0066 14.2227 91.0216 14.5678C91.0366 14.8979 91.0441 15.1905 91.0441 15.4456V21.6575H88.6134V20.1721ZM88.4558 16.8185H87.8932C87.518 16.8185 87.0979 16.8335 86.6328 16.8636C86.1676 16.8936 85.725 16.9686 85.3049 17.0886C84.8997 17.1937 84.5546 17.3587 84.2695 17.5838C83.9844 17.7938 83.8419 18.0939 83.8419 18.4841C83.8419 18.7391 83.8944 18.9567 83.9995 19.1367C84.1195 19.3018 84.2695 19.4443 84.4496 19.5644C84.6296 19.6844 84.8322 19.7744 85.0573 19.8345C85.2823 19.8795 85.5074 19.902 85.7325 19.902C86.6628 19.902 87.3455 19.6844 87.7806 19.2493C88.2308 18.7991 88.4558 18.1915 88.4558 17.4262V16.8185Z" fill="#262C39"/>
<path d="M92.8246 10.8542H95.3904V12.5872H95.4354C95.6905 12.0471 96.0806 11.5819 96.6058 11.1918C97.131 10.7867 97.8437 10.5841 98.744 10.5841C99.4642 10.5841 100.072 10.7042 100.567 10.9442C101.077 11.1843 101.49 11.4994 101.805 11.8895C102.12 12.2796 102.345 12.7298 102.48 13.2399C102.615 13.7501 102.683 14.2828 102.683 14.8379V21.6575H99.9818V16.1883C99.9818 15.8882 99.9668 15.5581 99.9368 15.198C99.9068 14.8229 99.8243 14.4778 99.6892 14.1627C99.5692 13.8326 99.3742 13.5625 99.1041 13.3525C98.834 13.1274 98.4664 13.0149 98.0012 13.0149C97.5511 13.0149 97.1685 13.0899 96.8534 13.2399C96.5533 13.39 96.2982 13.5925 96.0881 13.8476C95.8931 14.1027 95.7505 14.3953 95.6605 14.7254C95.5705 15.0555 95.5255 15.4006 95.5255 15.7607V21.6575H92.8246V10.8542Z" fill="#262C39"/>
<path d="M106.784 17.2012C106.874 18.0114 107.189 18.6416 107.729 19.0917C108.269 19.5419 108.922 19.7669 109.687 19.7669C110.362 19.7669 110.925 19.6319 111.375 19.3618C111.84 19.0767 112.246 18.7241 112.591 18.304L114.526 19.7669C113.896 20.5472 113.191 21.1024 112.411 21.4325C111.63 21.7626 110.813 21.9276 109.957 21.9276C109.147 21.9276 108.382 21.7926 107.662 21.5225C106.941 21.2524 106.319 20.8698 105.794 20.3746C105.268 19.8795 104.848 19.2868 104.533 18.5966C104.233 17.8914 104.083 17.1111 104.083 16.2559C104.083 15.4006 104.233 14.6279 104.533 13.9376C104.848 13.2324 105.268 12.6322 105.794 12.1371C106.319 11.6419 106.941 11.2593 107.662 10.9892C108.382 10.7192 109.147 10.5841 109.957 10.5841C110.708 10.5841 111.39 10.7192 112.005 10.9892C112.636 11.2443 113.168 11.6194 113.603 12.1146C114.054 12.6097 114.399 13.2249 114.639 13.9602C114.894 14.6804 115.021 15.5131 115.021 16.4584V17.2012H106.784ZM112.321 15.1755C112.306 14.3803 112.058 13.7576 111.578 13.3075C111.098 12.8423 110.43 12.6097 109.575 12.6097C108.764 12.6097 108.119 12.8423 107.639 13.3075C107.174 13.7726 106.889 14.3953 106.784 15.1755H112.321Z" fill="#262C39"/>
<path d="M119.213 15.8507L115.476 10.8542H118.762L120.923 14.0952L123.264 10.8542H126.347L122.656 15.8507L127 21.6575H123.714L120.901 17.7863L118.065 21.6575H114.869L119.213 15.8507Z" fill="#262C39"/>
<path d="M0 12.7059C0 6.20828 5.26736 0.940918 11.765 0.940918C18.2626 0.940918 23.53 6.20828 23.53 12.7059V24.4709H11.765C5.26737 24.4709 0 19.2035 0 12.7059Z" fill="url(#paint0_linear_238_84)"/>
<defs>
<linearGradient id="paint0_linear_238_84" x1="-6.06075" y1="33.2055" x2="28.5212" y2="-4.40681" gradientUnits="userSpaceOnUse">
<stop stop-color="#3A5FF7"/>
</linearGradient>
</defs>
</svg>
